# xmcd
#
# Track frame offsets: 
#        150
#        12954
#        26422
#        38149
#        49338
#        62563
#        75485
#        87296
#        99895
#        112258
#        124863
#        137734
#        149991
#        163099
#        176555
#        190406
#        204004
#        216548
#        230288
#        244808
#        258541
#        271631
#        283536
#        296824
#        309902
#
# Disc length: 4299 seconds
#
# Revision: 1
# Processed by: cddbd v1.5.2PL0 Copyright (c) Steve Scherf et al.
# Submitted via: ExactAudioCopyFreeDBPlugin 1.0
#
DISCID=6f10c919
DTITLE=Big Bill Broonzy - All The Sides [JSP Records]
DYEAR=2007
DGENRE=Blues
TTITLE0=I'm Having So Much Trouble
TTITLE1=Wee Wee Hours
TTITLE2=Conversation with the Blues
TTITLE3=All By Myself
TTITLE4=Keep Your Hand on Your Heart
TTITLE5=Why Should I Spend My Money
TTITLE6=What's Wrong with Me
TTITLE7=I Feel So Good
TTITLE8=In the Army Now
TTITLE9=Bad Acting Woman
TTITLE10=Night Watchman Blues
TTITLE11=She's Gone with the Wind
TTITLE12=I'm Gonna Move to the Outskirts of Town
TTITLE13=Tell Me Baby
TTITLE14=Hard Hearted Woman
TTITLE15=I'm Woke Up Now
TTITLE16=Please Believe Me
TTITLE17=Why Did You Do That to Me
TTITLE18=You Got to Play Your Hand
TTITLE19=Just a Dream
TTITLE20=Doing the Best I Can
TTITLE21=Partnership Woman
TTITLE22=Where the Blues Began
TTITLE23=Humble Blues
TTITLE24=Oh, Baby!
EXTD=
EXTT0=
EXTT1=
EXTT2=
EXTT3=
EXTT4=
EXTT5=
EXTT6=
EXTT7=
EXTT8=
EXTT9=
EXTT10=
EXTT11=
EXTT12=
EXTT13=
EXTT14=
EXTT15=
EXTT16=
EXTT17=
EXTT18=
EXTT19=
EXTT20=
EXTT21=
EXTT22=
EXTT23=
EXTT24=
PLAYORDER=
